<svg xmlns="http://www.w3.org/2000/svg" xmlns:xlink="http://www.w3.org/1999/xlink" width="2129pt" height="1976pt" viewBox="0.00 0.00 2128.55 1976.18">
<g id="graph0" class="graph" transform="scale(1 1) rotate(0) translate(4 1972.18)">
<title>G</title>
<polygon fill="white" stroke="none" points="-4,4 -4,-1972.18 2124.55,-1972.18 2124.55,4 -4,4"/>
<!-- Start -->
<g id="node1" class="node">
<title>Start</title>
<polygon fill="white" stroke="white" points="50.5,-974.1 0,-956.1 50.5,-938.1 100.99,-956.1 50.5,-974.1"/>
<polyline fill="none" stroke="white" points="11.3,-960.13 11.3,-952.07"/>
<polyline fill="none" stroke="white" points="39.19,-942.13 61.8,-942.13"/>
<polyline fill="none" stroke="white" points="89.69,-952.07 89.69,-960.13"/>
<polyline fill="none" stroke="white" points="61.8,-970.07 39.19,-970.07"/>
<text text-anchor="middle" x="50.5" y="-951.9" font-family="Times,serif" font-size="14.00">Início</text>
</g>
<!-- Init -->
<g id="node2" class="node">
<title>Init</title>
<ellipse fill="white" stroke="white" cx="991.11" cy="-513.94" rx="27" ry="18"/>
<text text-anchor="middle" x="991.11" y="-509.74" font-family="Times,serif" font-size="14.00">Init</text>
</g>
<!-- Start&#45;&gt;Init -->
<g id="edge1" class="edge">
<title>Start-&gt;Init</title>
<path fill="none" stroke="black" d="M72.82,-945.61C197.67,-886.92 809.14,-599.48 958.27,-529.38"/>
<polygon fill="black" stroke="black" points="959.65,-532.6 967.21,-525.17 956.67,-526.26 959.65,-532.6"/>
</g>
<!-- Loop -->
<g id="node3" class="node">
<title>Loop</title>
<ellipse fill="white" stroke="white" cx="1021.74" cy="-579.1" rx="31.42" ry="18"/>
<text text-anchor="middle" x="1021.74" y="-574.9" font-family="Times,serif" font-size="14.00">Loop</text>
</g>
<!-- Init&#45;&gt;Loop -->
<g id="edge2" class="edge">
<title>Init-&gt;Loop</title>
<path fill="none" stroke="black" d="M999.32,-531.4C1002.2,-537.54 1005.52,-544.59 1008.7,-551.36"/>
<polygon fill="black" stroke="black" points="1005.44,-552.66 1012.86,-560.22 1011.78,-549.68 1005.44,-552.66"/>
</g>
<!-- InitOled -->
<g id="node14" class="node">
<title>InitOled</title>
<ellipse fill="white" stroke="white" cx="1129.57" cy="-361.89" rx="43.22" ry="18"/>
<text text-anchor="middle" x="1129.57" y="-357.69" font-family="Times,serif" font-size="14.00">InitOled</text>
</g>
<!-- Init&#45;&gt;InitOled -->
<g id="edge19" class="edge">
<title>Init-&gt;InitOled</title>
<path fill="none" stroke="black" d="M1005.41,-498.24C1029.28,-472.02 1077.48,-419.1 1106.3,-387.45"/>
<polygon fill="black" stroke="black" points="1108.71,-390 1112.86,-380.24 1103.54,-385.28 1108.71,-390"/>
</g>
<!-- InitJoystick -->
<g id="node15" class="node">
<title>InitJoystick</title>
<ellipse fill="white" stroke="white" cx="785.68" cy="-523.54" rx="56.1" ry="18"/>
<text text-anchor="middle" x="785.68" y="-519.34" font-family="Times,serif" font-size="14.00">InitJoystick</text>
</g>
<!-- Init&#45;&gt;InitJoystick -->
<g id="edge20" class="edge">
<title>Init-&gt;InitJoystick</title>
<path fill="none" stroke="black" d="M963.83,-515.21C935.64,-516.53 890.56,-518.64 852.8,-520.41"/>
<polygon fill="black" stroke="black" points="852.68,-516.91 842.86,-520.87 853.01,-523.9 852.68,-516.91"/>
</g>
<!-- VerificaTimeout -->
<g id="node4" class="node">
<title>VerificaTimeout</title>
<ellipse fill="white" stroke="white" cx="1263.5" cy="-513.52" rx="75.39" ry="18"/>
<text text-anchor="middle" x="1263.5" y="-509.32" font-family="Times,serif" font-size="14.00">VerificaTimeout</text>
</g>
<!-- Loop&#45;&gt;VerificaTimeout -->
<g id="edge3" class="edge">
<title>Loop-&gt;VerificaTimeout</title>
<path fill="none" stroke="black" d="M1050.42,-571.32C1087.55,-561.25 1153.26,-543.42 1201.93,-530.22"/>
<polygon fill="black" stroke="black" points="1202.77,-533.62 1211.5,-527.62 1200.94,-526.86 1202.77,-533.62"/>
</g>
<!-- VerificaJoystick -->
<g id="node5" class="node">
<title>VerificaJoystick</title>
<ellipse fill="white" stroke="white" cx="816.99" cy="-723.41" rx="74.32" ry="18"/>
<text text-anchor="middle" x="816.99" y="-719.21" font-family="Times,serif" font-size="14.00">VerificaJoystick</text>
</g>
<!-- VerificaTimeout&#45;&gt;VerificaJoystick -->
<g id="edge4" class="edge">
<title>VerificaTimeout-&gt;VerificaJoystick</title>
<path fill="none" stroke="black" d="M1228.83,-529.81C1148.79,-567.44 951.17,-660.34 861.96,-702.27"/>
<polygon fill="black" stroke="black" points="860.57,-699.06 853,-706.48 863.54,-705.4 860.57,-699.06"/>
</g>
<!-- Timeout -->
<g id="node9" class="node">
<title>Timeout</title>
<ellipse fill="white" stroke="white" cx="1513.11" cy="-534.58" rx="43.76" ry="18"/>
<text text-anchor="middle" x="1513.11" y="-530.38" font-family="Times,serif" font-size="14.00">Timeout</text>
</g>
<!-- VerificaTimeout&#45;&gt;Timeout -->
<g id="edge8" class="edge">
<title>VerificaTimeout-&gt;Timeout</title>
<path fill="none" stroke="black" d="M1335.03,-519.55C1374.28,-522.86 1422.2,-526.91 1458.44,-529.96"/>
<polygon fill="black" stroke="black" points="1458,-533.44 1468.26,-530.79 1458.59,-526.47 1458,-533.44"/>
<text text-anchor="middle" x="1417.05" y="-512.16" font-family="Times,serif" font-size="14.00">Sem interação</text>
</g>
<!-- VerificaBotoes -->
<g id="node6" class="node">
<title>VerificaBotoes</title>
<ellipse fill="white" stroke="white" cx="632.47" cy="-1420.68" rx="69.49" ry="18"/>
<text text-anchor="middle" x="632.47" y="-1416.48" font-family="Times,serif" font-size="14.00">VerificaBotoes</text>
</g>
<!-- VerificaJoystick&#45;&gt;VerificaBotoes -->
<g id="edge5" class="edge">
<title>VerificaJoystick-&gt;VerificaBotoes</title>
<path fill="none" stroke="black" d="M812.15,-741.7C787.03,-836.64 671.46,-1273.34 640.25,-1391.26"/>
<polygon fill="black" stroke="black" points="636.91,-1390.23 637.73,-1400.8 643.67,-1392.02 636.91,-1390.23"/>
</g>
<!-- NavegaMenu -->
<g id="node11" class="node">
<title>NavegaMenu</title>
<ellipse fill="white" stroke="white" cx="673.95" cy="-929.05" rx="63.06" ry="18"/>
<text text-anchor="middle" x="673.95" y="-924.85" font-family="Times,serif" font-size="14.00">NavegaMenu</text>
</g>
<!-- VerificaJoystick&#45;&gt;NavegaMenu -->
<g id="edge10" class="edge">
<title>VerificaJoystick-&gt;NavegaMenu</title>
<path fill="none" stroke="black" d="M804.55,-741.3C779.45,-777.38 722.63,-859.07 692.89,-901.81"/>
<polygon fill="black" stroke="black" points="690.17,-899.6 687.33,-909.81 695.91,-903.6 690.17,-899.6"/>
<text text-anchor="middle" x="682.61" y="-825.76" font-family="Times,serif" font-size="14.00">Movimento no Joystick</text>
</g>
<!-- AtualizaMenu -->
<g id="node7" class="node">
<title>AtualizaMenu</title>
<ellipse fill="white" stroke="white" cx="1840.18" cy="-1740.28" rx="66.28" ry="18"/>
<text text-anchor="middle" x="1840.18" y="-1736.08" font-family="Times,serif" font-size="14.00">AtualizaMenu</text>
</g>
<!-- VerificaBotoes&#45;&gt;AtualizaMenu -->
<g id="edge6" class="edge">
<title>VerificaBotoes-&gt;AtualizaMenu</title>
<path fill="none" stroke="black" d="M681.69,-1433.71C873.77,-1484.54 1572.66,-1669.49 1781.1,-1724.65"/>
<polygon fill="black" stroke="black" points="1780.08,-1728 1790.64,-1727.18 1781.87,-1721.23 1780.08,-1728"/>
</g>
<!-- VoltaMenuPrincipal -->
<g id="node10" class="node">
<title>VoltaMenuPrincipal</title>
<ellipse fill="white" stroke="white" cx="609.86" cy="-1171.21" rx="89.89" ry="18"/>
<text text-anchor="middle" x="609.86" y="-1167.01" font-family="Times,serif" font-size="14.00">VoltaMenuPrincipal</text>
</g>
<!-- VerificaBotoes&#45;&gt;VoltaMenuPrincipal -->
<g id="edge13" class="edge">
<title>VerificaBotoes-&gt;VoltaMenuPrincipal</title>
<path fill="none" stroke="black" d="M630.81,-1402.34C626.94,-1359.63 617.29,-1253.21 612.57,-1201.02"/>
<polygon fill="black" stroke="black" points="616.05,-1200.73 611.67,-1191.09 609.08,-1201.36 616.05,-1200.73"/>
<text text-anchor="middle" x="597.77" y="-1305.88" font-family="Times,serif" font-size="14.00">Botão A</text>
</g>
<!-- SelecionaOpcao -->
<g id="node12" class="node">
<title>SelecionaOpcao</title>
<ellipse fill="white" stroke="white" cx="739.03" cy="-1647.38" rx="73.78" ry="18"/>
<text text-anchor="middle" x="739.03" y="-1643.18" font-family="Times,serif" font-size="14.00">SelecionaOpcao</text>
</g>
<!-- VerificaBotoes&#45;&gt;SelecionaOpcao -->
<g id="edge12" class="edge">
<title>VerificaBotoes-&gt;SelecionaOpcao</title>
<path fill="none" stroke="black" d="M641.01,-1438.85C659.52,-1478.23 703.46,-1571.7 725.68,-1618.97"/>
<polygon fill="black" stroke="black" points="722.39,-1620.19 729.81,-1627.75 728.72,-1617.21 722.39,-1620.19"/>
<text text-anchor="middle" x="641.54" y="-1533.11" font-family="Times,serif" font-size="14.00">Botão Joystick</text>
</g>
<!-- EndLoop -->
<g id="node8" class="node">
<title>EndLoop</title>
<polygon fill="white" stroke="white" points="2040.59,-1592.02 1925.85,-1592.02 1925.85,-1477.27 2040.59,-1477.27 2040.59,-1592.02"/>
<polyline fill="none" stroke="white" points="1937.85,-1592.02 1925.85,-1580.02"/>
<polyline fill="none" stroke="white" points="1925.85,-1489.27 1937.85,-1477.27"/>
<polyline fill="none" stroke="white" points="2028.59,-1477.27 2040.59,-1489.27"/>
<polyline fill="none" stroke="white" points="2040.59,-1580.02 2028.59,-1592.02"/>
<text text-anchor="middle" x="1983.22" y="-1530.45" font-family="Times,serif" font-size="14.00">Retornar ao Loop</text>
</g>
<!-- AtualizaMenu&#45;&gt;EndLoop -->
<g id="edge7" class="edge">
<title>AtualizaMenu-&gt;EndLoop</title>
<path fill="none" stroke="black" d="M1857.61,-1722.6C1879.06,-1695.97 1915.82,-1644.35 1944.1,-1601.91"/>
<polygon fill="black" stroke="black" points="1946.92,-1603.99 1949.52,-1593.72 1941.08,-1600.12 1946.92,-1603.99"/>
</g>
<!-- AtualizaMenu&#45;&gt;EndLoop -->
<g id="edge16" class="edge">
<title>AtualizaMenu-&gt;EndLoop</title>
<path fill="none" stroke="black" d="M1848.25,-1721.95C1863.81,-1695.09 1898.45,-1643.77 1928.78,-1601.62"/>
<polygon fill="black" stroke="black" points="1931.46,-1603.88 1934.49,-1593.73 1925.79,-1599.78 1931.46,-1603.88"/>
</g>
<!-- DesenhaOpcoes -->
<g id="node24" class="node">
<title>DesenhaOpcoes</title>
<ellipse fill="white" stroke="white" cx="2047.3" cy="-1292.49" rx="73.25" ry="18"/>
<text text-anchor="middle" x="2047.3" y="-1288.29" font-family="Times,serif" font-size="14.00">DesenhaOpcoes</text>
</g>
<!-- AtualizaMenu&#45;&gt;DesenhaOpcoes -->
<g id="edge32" class="edge">
<title>AtualizaMenu-&gt;DesenhaOpcoes</title>
<path fill="none" stroke="black" d="M1848.55,-1722.18C1880.49,-1653.12 1994.83,-1405.94 2034.01,-1321.22"/>
<polygon fill="black" stroke="black" points="2037.17,-1322.74 2038.19,-1312.2 2030.81,-1319.8 2037.17,-1322.74"/>
</g>
<!-- DesenhaRetangulo -->
<g id="node25" class="node">
<title>DesenhaRetangulo</title>
<ellipse fill="white" stroke="white" cx="2024.7" cy="-1043.01" rx="83.98" ry="18"/>
<text text-anchor="middle" x="2024.7" y="-1038.81" font-family="Times,serif" font-size="14.00">DesenhaRetangulo</text>
</g>
<!-- AtualizaMenu&#45;&gt;DesenhaRetangulo -->
<g id="edge33" class="edge">
<title>AtualizaMenu-&gt;DesenhaRetangulo</title>
<path fill="none" stroke="black" d="M1845.02,-1721.99C1870.14,-1627.06 1985.71,-1190.36 2016.91,-1072.43"/>
<polygon fill="black" stroke="black" points="2020.26,-1073.46 2019.44,-1062.9 2013.49,-1071.67 2020.26,-1073.46"/>
</g>
<!-- DesenhaSetas -->
<g id="node26" class="node">
<title>DesenhaSetas</title>
<ellipse fill="white" stroke="white" cx="1918.13" cy="-816.32" rx="64.67" ry="18"/>
<text text-anchor="middle" x="1918.13" y="-812.12" font-family="Times,serif" font-size="14.00">DesenhaSetas</text>
</g>
<!-- AtualizaMenu&#45;&gt;DesenhaSetas -->
<g id="edge34" class="edge">
<title>AtualizaMenu-&gt;DesenhaSetas</title>
<path fill="none" stroke="black" d="M1841.73,-1721.83C1851.44,-1606.78 1903.62,-988.3 1915.66,-845.67"/>
<polygon fill="black" stroke="black" points="1919.12,-846.2 1916.48,-835.95 1912.15,-845.62 1919.12,-846.2"/>
</g>
<!-- EndLoop&#45;&gt;Loop -->
<g id="edge18" class="edge">
<title>EndLoop-&gt;Loop</title>
<path fill="none" stroke="black" d="M1925.6,-1477.38C1741.04,-1293.96 1169.41,-725.85 1045.56,-602.77"/>
<polygon fill="black" stroke="black" points="1048.38,-600.64 1038.82,-596.07 1043.44,-605.6 1048.38,-600.64"/>
</g>
<!-- Timeout&#45;&gt;VoltaMenuPrincipal -->
<g id="edge9" class="edge">
<title>Timeout-&gt;VoltaMenuPrincipal</title>
<path fill="none" stroke="black" d="M1490.78,-550.31C1369.56,-635.75 790.57,-1043.84 643.76,-1147.31"/>
<polygon fill="black" stroke="black" points="642.12,-1144.19 635.97,-1152.81 646.16,-1149.91 642.12,-1144.19"/>
</g>
<!-- VoltaMenuPrincipal&#45;&gt;AtualizaMenu -->
<g id="edge17" class="edge">
<title>VoltaMenuPrincipal-&gt;AtualizaMenu</title>
<path fill="none" stroke="black" d="M646.35,-1188.08C824.34,-1270.41 1600.83,-1629.57 1795.69,-1719.71"/>
<polygon fill="black" stroke="black" points="1794.19,-1722.87 1804.74,-1723.89 1797.13,-1716.52 1794.19,-1722.87"/>
</g>
<!-- NavegaMenu&#45;&gt;AtualizaMenu -->
<g id="edge11" class="edge">
<title>NavegaMenu-&gt;AtualizaMenu</title>
<path fill="none" stroke="black" d="M698.31,-945.99C847.19,-1049.56 1633.79,-1596.72 1806.59,-1716.92"/>
<polygon fill="black" stroke="black" points="1804.5,-1719.73 1814.71,-1722.57 1808.5,-1713.99 1804.5,-1719.73"/>
</g>
<!-- ExecutaAcao -->
<g id="node13" class="node">
<title>ExecutaAcao</title>
<ellipse fill="white" stroke="white" cx="916.71" cy="-1823.96" rx="62.51" ry="18"/>
<text text-anchor="middle" x="916.71" y="-1819.76" font-family="Times,serif" font-size="14.00">ExecutaAcao</text>
</g>
<!-- SelecionaOpcao&#45;&gt;ExecutaAcao -->
<g id="edge14" class="edge">
<title>SelecionaOpcao-&gt;ExecutaAcao</title>
<path fill="none" stroke="black" d="M757.05,-1665.28C788.79,-1696.83 854.76,-1762.39 891.18,-1798.59"/>
<polygon fill="black" stroke="black" points="888.28,-1800.64 897.84,-1805.2 893.21,-1795.67 888.28,-1800.64"/>
</g>
<!-- ExecutaAcao&#45;&gt;AtualizaMenu -->
<g id="edge15" class="edge">
<title>ExecutaAcao-&gt;AtualizaMenu</title>
<path fill="none" stroke="black" d="M976.59,-1818.53C1138.89,-1803.83 1586.99,-1763.23 1765.43,-1747.06"/>
<polygon fill="black" stroke="black" points="1765.64,-1750.55 1775.28,-1746.16 1765.01,-1743.58 1765.64,-1750.55"/>
</g>
<!-- VerificaSubmenu -->
<g id="node21" class="node">
<title>VerificaSubmenu</title>
<ellipse fill="white" stroke="white" cx="1144.06" cy="-1929.12" rx="79.15" ry="18"/>
<text text-anchor="middle" x="1144.06" y="-1924.92" font-family="Times,serif" font-size="14.00">VerificaSubmenu</text>
</g>
<!-- ExecutaAcao&#45;&gt;VerificaSubmenu -->
<g id="edge27" class="edge">
<title>ExecutaAcao-&gt;VerificaSubmenu</title>
<path fill="none" stroke="black" d="M950.25,-1839.47C989.39,-1857.58 1054.32,-1887.61 1098.12,-1907.87"/>
<polygon fill="black" stroke="black" points="1096.58,-1911.01 1107.13,-1912.03 1099.52,-1904.66 1096.58,-1911.01"/>
<text text-anchor="middle" x="974.6" y="-1877.87" font-family="Times,serif" font-size="14.00">Possui Submenu?</text>
</g>
<!-- ConfigOled -->
<g id="node16" class="node">
<title>ConfigOled</title>
<ellipse fill="white" stroke="white" cx="1119.97" cy="-156.46" rx="56.63" ry="18"/>
<text text-anchor="middle" x="1119.97" y="-152.26" font-family="Times,serif" font-size="14.00">ConfigOled</text>
</g>
<!-- InitOled&#45;&gt;ConfigOled -->
<g id="edge21" class="edge">
<title>InitOled-&gt;ConfigOled</title>
<path fill="none" stroke="black" d="M1128.72,-343.66C1127.06,-308.19 1123.39,-229.6 1121.37,-186.39"/>
<polygon fill="black" stroke="black" points="1124.87,-186.29 1120.9,-176.46 1117.87,-186.61 1124.87,-186.29"/>
</g>
<!-- ConfigJoystick -->
<g id="node17" class="node">
<title>ConfigJoystick</title>
<ellipse fill="white" stroke="white" cx="633.64" cy="-385.08" rx="69.52" ry="18"/>
<text text-anchor="middle" x="633.64" y="-380.88" font-family="Times,serif" font-size="14.00">ConfigJoystick</text>
</g>
<!-- InitJoystick&#45;&gt;ConfigJoystick -->
<g id="edge22" class="edge">
<title>InitJoystick-&gt;ConfigJoystick</title>
<path fill="none" stroke="black" d="M766.74,-506.29C740.22,-482.14 691.86,-438.11 661.31,-410.28"/>
<polygon fill="black" stroke="black" points="663.69,-407.72 653.94,-403.57 658.98,-412.89 663.69,-407.72"/>
</g>
<!-- OledPronto -->
<g id="node18" class="node">
<title>OledPronto</title>
<ellipse fill="white" stroke="white" cx="967.92" cy="-18" rx="55.56" ry="18"/>
<text text-anchor="middle" x="967.92" y="-13.8" font-family="Times,serif" font-size="14.00">OledPronto</text>
</g>
<!-- ConfigOled&#45;&gt;OledPronto -->
<g id="edge23" class="edge">
<title>ConfigOled-&gt;OledPronto</title>
<path fill="none" stroke="black" d="M1101.02,-139.21C1074.36,-114.93 1025.62,-70.54 995.1,-42.75"/>
<polygon fill="black" stroke="black" points="997.5,-40.2 987.75,-36.06 992.79,-45.38 997.5,-40.2"/>
</g>
<!-- JoystickPronto -->
<g id="node19" class="node">
<title>JoystickPronto</title>
<ellipse fill="white" stroke="white" cx="624.03" cy="-179.66" rx="68.45" ry="18"/>
<text text-anchor="middle" x="624.03" y="-175.46" font-family="Times,serif" font-size="14.00">JoystickPronto</text>
</g>
<!-- ConfigJoystick&#45;&gt;JoystickPronto -->
<g id="edge24" class="edge">
<title>ConfigJoystick-&gt;JoystickPronto</title>
<path fill="none" stroke="black" d="M632.78,-366.85C631.12,-331.38 627.45,-252.8 625.43,-209.58"/>
<polygon fill="black" stroke="black" points="628.93,-209.48 624.96,-199.65 621.94,-209.8 628.93,-209.48"/>
</g>
<!-- SistemaPronto -->
<g id="node20" class="node">
<title>SistemaPronto</title>
<ellipse fill="white" stroke="white" cx="762.49" cy="-27.61" rx="67.37" ry="18"/>
<text text-anchor="middle" x="762.49" y="-23.41" font-family="Times,serif" font-size="14.00">SistemaPronto</text>
</g>
<!-- OledPronto&#45;&gt;SistemaPronto -->
<g id="edge25" class="edge">
<title>OledPronto-&gt;SistemaPronto</title>
<path fill="none" stroke="black" d="M912.6,-20.59C890.44,-21.62 864.51,-22.84 840.5,-23.96"/>
<polygon fill="black" stroke="black" points="840.59,-20.45 830.77,-24.41 840.92,-27.44 840.59,-20.45"/>
</g>
<!-- JoystickPronto&#45;&gt;SistemaPronto -->
<g id="edge26" class="edge">
<title>JoystickPronto-&gt;SistemaPronto</title>
<path fill="none" stroke="black" d="M640.18,-161.92C664.57,-135.14 710.92,-84.24 739.03,-53.37"/>
<polygon fill="black" stroke="black" points="741.28,-56.1 745.42,-46.35 736.1,-51.39 741.28,-56.1"/>
</g>
<!-- NavegaSubmenu -->
<g id="node22" class="node">
<title>NavegaSubmenu</title>
<ellipse fill="white" stroke="white" cx="1393.67" cy="-1950.18" rx="77.01" ry="18"/>
<text text-anchor="middle" x="1393.67" y="-1945.98" font-family="Times,serif" font-size="14.00">NavegaSubmenu</text>
</g>
<!-- VerificaSubmenu&#45;&gt;NavegaSubmenu -->
<g id="edge28" class="edge">
<title>VerificaSubmenu-&gt;NavegaSubmenu</title>
<path fill="none" stroke="black" d="M1218.61,-1935.41C1247.27,-1937.83 1280.18,-1940.6 1309.67,-1943.09"/>
<polygon fill="black" stroke="black" points="1309.02,-1946.55 1319.28,-1943.9 1309.61,-1939.57 1309.02,-1946.55"/>
<text text-anchor="middle" x="1252.86" y="-1943.45" font-family="Times,serif" font-size="14.00">Sim</text>
</g>
<!-- ExecutaFuncao -->
<g id="node23" class="node">
<title>ExecutaFuncao</title>
<ellipse fill="white" stroke="white" cx="1635.43" cy="-1884.6" rx="70.56" ry="18"/>
<text text-anchor="middle" x="1635.43" y="-1880.4" font-family="Times,serif" font-size="14.00">ExecutaFuncao</text>
</g>
<!-- VerificaSubmenu&#45;&gt;ExecutaFuncao -->
<g id="edge29" class="edge">
<title>VerificaSubmenu-&gt;ExecutaFuncao</title>
<path fill="none" stroke="black" d="M1218.16,-1922.4C1309.52,-1914.13 1464.12,-1900.12 1557.3,-1891.68"/>
<polygon fill="black" stroke="black" points="1557.48,-1895.17 1567.12,-1890.79 1556.85,-1888.2 1557.48,-1895.17"/>
<text text-anchor="middle" x="1375.67" y="-1911.24" font-family="Times,serif" font-size="14.00">Não</text>
</g>
<!-- NavegaSubmenu&#45;&gt;AtualizaMenu -->
<g id="edge30" class="edge">
<title>NavegaSubmenu-&gt;AtualizaMenu</title>
<path fill="none" stroke="black" d="M1428.71,-1933.71C1509.31,-1895.82 1707.74,-1802.54 1796.29,-1760.92"/>
<polygon fill="black" stroke="black" points="1797.59,-1764.17 1805.15,-1756.75 1794.61,-1757.83 1797.59,-1764.17"/>
</g>
<!-- ExecutaFuncao&#45;&gt;AtualizaMenu -->
<g id="edge31" class="edge">
<title>ExecutaFuncao-&gt;AtualizaMenu</title>
<path fill="none" stroke="black" d="M1659.72,-1867.48C1696.2,-1841.76 1765.25,-1793.09 1806.55,-1763.99"/>
<polygon fill="black" stroke="black" points="1808.52,-1766.88 1814.68,-1758.26 1804.49,-1761.16 1808.52,-1766.88"/>
</g>
<!-- DesenhaOpcoes&#45;&gt;DesenhaRetangulo -->
<g id="edge35" class="edge">
<title>DesenhaOpcoes-&gt;DesenhaRetangulo</title>
<path fill="none" stroke="black" d="M2045.64,-1274.14C2041.77,-1231.43 2032.13,-1125.02 2027.4,-1072.83"/>
<polygon fill="black" stroke="black" points="2030.89,-1072.54 2026.5,-1062.89 2023.92,-1073.17 2030.89,-1072.54"/>
</g>
<!-- DesenhaRetangulo&#45;&gt;DesenhaSetas -->
<g id="edge36" class="edge">
<title>DesenhaRetangulo-&gt;DesenhaSetas</title>
<path fill="none" stroke="black" d="M2016.16,-1024.85C1997.65,-985.47 1953.71,-891.99 1931.49,-844.73"/>
<polygon fill="black" stroke="black" points="1934.78,-843.5 1927.36,-835.94 1928.44,-846.48 1934.78,-843.5"/>
</g>
<!-- MenuAtualizado -->
<g id="node27" class="node">
<title>MenuAtualizado</title>
<ellipse fill="white" stroke="white" cx="1740.46" cy="-639.74" rx="75.93" ry="18"/>
<text text-anchor="middle" x="1740.46" y="-635.54" font-family="Times,serif" font-size="14.00">MenuAtualizado</text>
</g>
<!-- DesenhaSetas&#45;&gt;MenuAtualizado -->
<g id="edge37" class="edge">
<title>DesenhaSetas-&gt;MenuAtualizado</title>
<path fill="none" stroke="black" d="M1900.45,-798.74C1868.87,-767.36 1802.67,-701.56 1766.1,-665.22"/>
<polygon fill="black" stroke="black" points="1768.97,-663.14 1759.41,-658.57 1764.04,-668.11 1768.97,-663.14"/>
</g>
<!-- MenuAtualizado&#45;&gt;EndLoop -->
<g id="edge38" class="edge">
<title>MenuAtualizado-&gt;EndLoop</title>
<path fill="none" stroke="black" d="M1745.42,-658.02C1773.54,-761.71 1913.56,-1277.86 1964.58,-1465.94"/>
<polygon fill="black" stroke="black" points="1961.13,-1466.59 1967.13,-1475.32 1967.89,-1464.76 1961.13,-1466.59"/>
</g>
</g>
</svg>